<?xml version="1.0" standalone="no"?>
<!DOCTYPE svg PUBLIC "-//W3C//DTD SVG 20010904//EN"
 "http://www.w3.org/TR/2001/REC-SVG-20010904/DTD/svg10.dtd">
<svg version="1.0" xmlns="http://www.w3.org/2000/svg"
 width="169.000000pt" height="63.000000pt" viewBox="0 0 169.000000 63.000000"
 preserveAspectRatio="xMidYMid meet">

<g transform="translate(0.000000,63.000000) scale(0.100000,-0.100000)"
fill="#000000" stroke="none">
<path d="M650 333 l0 -138 -83 -18 c-107 -24 -107 -25 -107 -37 0 -19 31 -23
43 -6 7 9 45 24 85 33 l72 17 0 143 c0 79 -2 143 -5 143 -3 0 -5 -62 -5 -137z"/>
<path d="M172 323 l-2 -142 38 -6 c59 -10 99 -25 112 -41 18 -20 40 -17 40 6
0 12 -7 20 -17 20 -9 0 -50 8 -90 18 l-72 17 -3 135 -4 135 -2 -142z"/>
<path d="M383 438 c25 -22 27 -29 27 -99 0 -41 -4 -79 -10 -85 -5 -5 -6 -15 0
-24 18 -29 26 6 22 98 -4 90 -5 92 -35 113 l-32 21 28 -24z"/>
<path d="M440 445 c0 -8 7 -15 15 -15 8 0 15 7 15 15 0 8 -7 15 -15 15 -8 0
-15 -7 -15 -15z"/>
<path d="M1401 378 c-1 -21 -6 -27 -28 -30 -26 -3 -28 -6 -28 -48 0 -45 0 -45
35 -45 l36 -1 -4 61 c-4 71 -9 101 -11 63z m-6 -74 c0 -19 -6 -30 -16 -32 -21
-4 -32 24 -18 49 14 28 34 18 34 -17z"/>
<path d="M730 380 c0 -5 7 -10 15 -10 12 0 15 -13 15 -60 0 -33 4 -60 10 -60
6 0 10 27 10 60 0 46 3 60 14 60 8 0 18 5 21 10 4 6 -12 10 -39 10 -25 0 -46
-4 -46 -10z"/>
<path d="M1102 323 c3 -66 4 -68 31 -71 41 -5 67 22 67 69 0 47 -21 69 -66 69
l-35 0 3 -67z m62 44 c13 -9 17 -23 14 -52 -3 -35 -6 -40 -30 -43 -27 -3 -28
-2 -28 46 0 63 10 74 44 49z"/>
<path d="M941 368 c0 -10 -6 -18 -13 -18 -9 0 -9 -3 0 -12 7 -7 12 -27 12 -44
0 -33 15 -53 28 -39 4 4 1 10 -5 12 -20 7 -16 71 5 76 15 4 15 5 0 6 -9 0 -19
9 -21 19 -4 16 -5 16 -6 0z"/>
<path d="M822 303 l3 -48 37 0 38 0 0 48 c0 56 -17 64 -22 10 -2 -27 -8 -39
-20 -41 -15 -3 -18 4 -18 37 0 23 -5 41 -11 41 -6 0 -9 -19 -7 -47z"/>
<path d="M1000 331 c-23 -45 22 -100 62 -75 9 6 4 10 -16 14 -41 7 -46 30 -6
30 27 0 31 3 28 23 -4 31 -52 36 -68 8z m54 -6 c4 -11 -1 -15 -19 -15 -24 0
-32 10 -18 23 11 12 31 8 37 -8z"/>
<path d="M1230 313 c0 -50 9 -61 47 -59 32 1 33 2 33 49 0 56 -17 64 -22 10
-2 -27 -8 -39 -20 -41 -15 -3 -18 4 -18 37 0 23 -4 41 -10 41 -5 0 -10 -17
-10 -37z"/>
<path d="M1448 326 c-16 -36 3 -76 36 -76 35 0 42 18 9 22 -39 4 -42 28 -3 28
27 0 31 3 28 23 -5 34 -54 36 -70 3z m52 -1 c0 -8 -9 -15 -20 -15 -20 0 -26
11 -13 23 12 13 33 7 33 -8z"/>
</g>
</svg>
